<?xml version="1.0" standalone="no"?>
<!DOCTYPE svg PUBLIC "-//W3C//DTD SVG 20010904//EN"
 "http://www.w3.org/TR/2001/REC-SVG-20010904/DTD/svg10.dtd">
<svg version="1.0" xmlns="http://www.w3.org/2000/svg"
 width="225.000000pt" height="225.000000pt" viewBox="0 0 225.000000 225.000000"
 preserveAspectRatio="xMidYMid meet">

<g transform="translate(0.000000,225.000000) scale(0.100000,-0.100000)"
fill="#000000" stroke="none">
<path d="M0 1125 l0 -1125 1125 0 1125 0 0 1125 0 1125 -1125 0 -1125 0 0
-1125z m666 236 c39 -24 64 -76 64 -136 0 -82 -47 -138 -128 -151 l-41 -6 51
-77 c28 -42 53 -78 55 -80 2 -3 19 11 38 29 19 19 35 29 35 22 0 -14 -59 -82
-71 -82 -5 0 -37 43 -70 95 -57 89 -63 95 -94 95 -29 0 -34 -4 -37 -27 l-3
-28 -97 -3 -98 -3 0 -29 c0 -17 -4 -30 -10 -30 -5 0 -10 20 -10 45 l0 45 100
0 100 0 0 170 0 170 93 0 c72 0 99 -4 123 -19z m734 -61 l0 -80 104 0 c59 0
108 -4 111 -10 4 -6 -33 -10 -105 -10 l-112 0 4 -131 3 -131 33 -29 c35 -31
66 -36 107 -17 29 13 55 55 55 88 0 11 5 20 10 20 16 0 12 -49 -6 -80 -35 -59
-118 -78 -168 -39 -52 41 -56 60 -56 289 0 133 4 210 10 210 6 0 10 -33 10
-80z m-454 -99 c109 -50 125 -225 28 -311 -28 -24 -44 -30 -81 -30 -39 0 -50
5 -83 38 -64 63 -76 146 -35 229 20 39 36 56 68 72 51 25 52 25 103 2z m144
-97 c0 -66 5 -116 14 -137 45 -107 158 -109 212 -5 10 18 14 62 14 137 0 62 4
112 10 116 16 10 13 -219 -4 -258 -36 -83 -122 -119 -185 -75 -69 47 -76 65
-79 210 -3 91 0 128 7 124 7 -5 11 -48 11 -112z m769 88 c33 -24 58 -67 66
-114 l7 -38 -136 0 c-148 0 -143 2 -126 -61 13 -46 58 -88 101 -95 44 -6 93
24 116 71 19 39 38 48 27 13 -19 -61 -76 -108 -132 -108 -70 0 -142 91 -142
180 0 59 35 128 80 158 41 28 97 25 139 -6z"/>
<path d="M470 1230 l0 -130 83 0 c91 0 117 11 142 60 19 37 19 103 0 140 -23
44 -63 60 -150 60 l-75 0 0 -130z"/>
<path d="M821 1160 c-51 -52 -63 -127 -32 -196 24 -53 64 -84 109 -84 51 0
108 59 117 124 9 61 -8 120 -45 158 -23 22 -37 28 -73 28 -37 0 -51 -6 -76
-30z"/>
<path d="M1733 1180 c-31 -18 -53 -50 -67 -97 l-7 -23 125 0 125 0 -9 29 c-13
47 -30 71 -63 91 -40 25 -64 25 -104 0z"/>
</g>
</svg>
